<svg fill="#000000" width="256px" height="256px" viewBox="-6.4 -6.4 76.80 76.80" data-name="Layer 1" id="Layer_1" xmlns="http://www.w3.org/2000/svg" stroke="#000000"><g id="SVGRepo_bgCarrier" stroke-width="0"><rect x="-6.4" y="-6.4" width="76.80" height="76.80" rx="38.4" fill="#d1d9ff" strokewidth="0"></rect></g><g id="SVGRepo_tracerCarrier" stroke-linecap="round" stroke-linejoin="round"></g><g id="SVGRepo_iconCarrier"><path d="M24,16H41a3,3,0,0,0,.039-6l-1.069.089a.989.989,0,0,1-1.057-.77A2.945,2.945,0,0,0,35,7.187,1,1,0,0,1,33.73,6.6a3.982,3.982,0,0,0-7.658.708,1,1,0,0,1-1.2.8A3.9,3.9,0,0,0,24,8a4,4,0,0,0,0,8Z"></path><path d="M44,18H20v5H44ZM28,22H22V20h6Zm3,0H29V20h2Zm3,0H32V20h2Z"></path><path d="M44,25H20v5H44ZM28,29H22V27h6Zm3,0H29V27h2Zm3,0H32V27h2Z"></path><path d="M11,41H28.142A4,4,0,0,0,31,43.858V48h2V43.858A4,4,0,0,0,35.858,41H53v7h2V40a1,1,0,0,0-1-1H35.858A4,4,0,0,0,33,36.142V31H31v5.142A4,4,0,0,0,28.142,39H10a1,1,0,0,0-1,1v8h2Z"></path><path d="M17,51H9L7.8,49.4A1,1,0,0,0,7,49H3a1,1,0,0,0-1,1V61a1,1,0,0,0,1,1H17a1,1,0,0,0,1-1V52A1,1,0,0,0,17,51Zm-2,5H13V54h2Z"></path><path d="M39,51H31l-1.2-1.6A1,1,0,0,0,29,49H25a1,1,0,0,0-1,1V61a1,1,0,0,0,1,1H39a1,1,0,0,0,1-1V52A1,1,0,0,0,39,51Zm-2,5H35V54h2Z"></path><path d="M61,51H53l-1.2-1.6A1,1,0,0,0,51,49H47a1,1,0,0,0-1,1V61a1,1,0,0,0,1,1H61a1,1,0,0,0,1-1V52A1,1,0,0,0,61,51Zm-2,5H57V54h2Z"></path></g></svg>